<?xml version="1.0" encoding="UTF-8"?>
<svg id="possibilities" width="1920" height="1080" viewBox="0 0 1920 1080" xmlns="http://www.w3.org/2000/svg">
    <!-- Background -->
    <rect width="1920" height="1080" class="canvas-bg"/>

    <!-- Symbol definitions -->
    <defs>
        <style>
            /* ── Mapping only: class -> variable. The VALUES live in
                  ../style/theme_dark.css and ../style/theme_light.css. ───────
               Every var() carries the PAPER value as its fallback, so this file
               opened on its own shows paper rather than unstyled shapes. See scene_01_premise.svg for what this block replaced and
               why none of it could be baked.
 */

            .canvas-bg {
                fill: var(--scene-background-color, #f2eee5);
            }

            /* The icon catalog's vocabulary. `icon-fill-medium` is deliberately
               absent: no glyph in THIS scene carries it. */
            .icon-fill {
                fill: var(--icon-fill, #ffffff);
            }

            .icon-fill-light {
                fill: var(--icon-fill-light, #ece7dc);
            }

            .icon-fill-dark {
                fill: var(--icon-fill-dark, #4a4540);
            }

            .icon-stroke {
                stroke: var(--icon-stroke, #6b635a);
            }

            .heading-text {
                fill: var(--title-text-color, #1a1714);
                font-family: var(--diagram-font-family, Arial, "Liberation Sans", Helvetica, sans-serif);
                font-size: 72px;
                font-weight: 700;
                text-anchor: middle;
            }

            .title-text {
                fill: var(--title-text-color, #1a1714);
                font-family: var(--diagram-font-family, Arial, "Liberation Sans", Helvetica, sans-serif);
                font-size: 48px;
                font-weight: 600;
                text-anchor: middle;
            }

            .subtitle-text {
                fill: var(--detail-text-color, #6b635a);
                font-family: var(--diagram-font-family, Arial, "Liberation Sans", Helvetica, sans-serif);
                font-size: 32px;
                font-weight: 400;
                text-anchor: middle;
            }


            /* ── The four topic rings and the heading's rule ──────────────── */
            /* Stroked and never filled: each ring surrounds a glyph, and a fill
               would bury the thing it is drawing attention to. */
            .bouncing-circle {
                fill: none;
                stroke: var(--topic-circle-stroke-color, #b5502a);
                stroke-width: 3;
            }

            .underline {
                stroke: var(--title-text-color, #1a1714);
                stroke-width: 3;
            }
        </style>

        <symbol id="thumbs_up" viewBox="0 0 24 24">
            <rect x="2" y="11" width="4" height="10" rx="1" class="icon-fill icon-stroke" stroke-width="1"/>
            <path d="M 6,11 L 9,3 Q 10,2 11,3 L 12,4 Q 13,6 13,9 H 20 Q 22,9 21.5,12 L 19.5,20 Q 19,21 17,21 H 6 Z" class="icon-fill icon-stroke" stroke-width="1" stroke-linejoin="round"/>
        </symbol>

        <symbol id="document_interactive" viewBox="0 0 24 24">
            <path d="M 6,3 L 15,3 L 18,6 L 18,13" class="icon-fill icon-stroke" stroke-width="1"/>
            <path d="M 6,3 L 6,20 L 13,20" class="icon-fill icon-stroke" stroke-width="1"/>
            <path d="M 15,3 L 15,6 L 18,6" class="icon-fill-light icon-stroke" stroke-width="1"/>
            <line x1="8" y1="8" x2="13" y2="8" class="icon-stroke" stroke-width="0.5"/>
            <line x1="8" y1="10" x2="15" y2="10" class="icon-stroke" stroke-width="0.5"/>
            <line x1="8" y1="12" x2="13" y2="12" class="icon-stroke" stroke-width="0.5"/>
            <line x1="8" y1="14" x2="12" y2="14" class="icon-stroke" stroke-width="0.5"/>
            <line x1="8" y1="16" x2="11" y2="16" class="icon-stroke" stroke-width="0.5"/>
            <circle cx="17.5" cy="17.5" r="4.5" class="icon-fill icon-stroke" stroke-width="1"/>
            <path d="M 17,16.75 L 18,17.25 L 17,17.75 Z" class="icon-fill-dark"/>
            <!-- <path d="M 16,15.5 L 20,17.5 L 16,19.5 Z" class="icon-fill-dark"/> -->
        </symbol>

        <symbol id="neural_network" viewBox="0 0 24 24">
            <line x1="4" y1="12" x2="10" y2="5" class="icon-stroke" stroke-width="0.75"/>
            <line x1="4" y1="12" x2="12" y2="13" class="icon-stroke" stroke-width="0.75"/>
            <line x1="10" y1="5" x2="18" y2="4" class="icon-stroke" stroke-width="0.75"/>
            <line x1="10" y1="5" x2="12" y2="13" class="icon-stroke" stroke-width="0.75"/>
            <line x1="12" y1="13" x2="18" y2="4" class="icon-stroke" stroke-width="0.75"/>
            <line x1="12" y1="13" x2="20" y2="12" class="icon-stroke" stroke-width="0.75"/>
            <line x1="12" y1="13" x2="14" y2="20" class="icon-stroke" stroke-width="0.75"/>
            <line x1="12" y1="13" x2="7" y2="19" class="icon-stroke" stroke-width="0.75"/>
            <line x1="20" y1="12" x2="18" y2="4" class="icon-stroke" stroke-width="0.75"/>
            <line x1="20" y1="12" x2="14" y2="20" class="icon-stroke" stroke-width="0.75"/>
            <line x1="14" y1="20" x2="7" y2="19" class="icon-stroke" stroke-width="0.75"/>
            <line x1="7" y1="19" x2="4" y2="12" class="icon-stroke" stroke-width="0.75"/>
            <circle cx="4" cy="12" r="2" class="icon-fill icon-stroke" stroke-width="1"/>
            <circle cx="10" cy="5" r="2" class="icon-fill icon-stroke" stroke-width="1"/>
            <circle cx="18" cy="4" r="2" class="icon-fill icon-stroke" stroke-width="1"/>
            <circle cx="12" cy="13" r="2.5" class="icon-fill icon-stroke" stroke-width="1"/>
            <circle cx="20" cy="12" r="2" class="icon-fill icon-stroke" stroke-width="1"/>
            <circle cx="14" cy="20" r="2" class="icon-fill icon-stroke" stroke-width="1"/>
            <circle cx="7" cy="19" r="2" class="icon-fill icon-stroke" stroke-width="1"/>
        </symbol>

        <symbol id="bullseye" viewBox="0 0 24 24">
            <circle cx="9" cy="15" r="8" class="icon-fill icon-stroke" stroke-width="1"/>
            <circle cx="9" cy="15" r="5" class="icon-fill icon-stroke" stroke-width="1"/>
            <circle cx="9" cy="15" r="2" class="icon-fill-dark"/>
            <line x1="18" y1="4" x2="9" y2="15" class="icon-stroke" stroke-width="1.5" stroke-linecap="round"/>
            <path d="M 17,1 L 18,4 L 21,5" fill="none" class="icon-stroke" stroke-width="1" stroke-linecap="round"/>
            <path d="M 14,4.25 L 15,7 L 18,8" fill="none" class="icon-stroke" stroke-width="1" stroke-linecap="round"/>
            <path d="M 17,1 L 14,4" fill="none" class="icon-stroke" stroke-width="1" stroke-linecap="round"/>
            <path d="M 21,5 L 18,8" fill="none" class="icon-stroke" stroke-width="1" stroke-linecap="round"/>
        </symbol>
    </defs>

    <!-- Main Heading -->
    <g id="heading">
        <text x="960" y="100" class="heading-text">The Potential</text>
    </g>

    <!-- Bouncing Circles (start positions, will move via animation) -->
    <!-- Circle 1: Social Media (top-left quadrant: x 60-580, y 170-320) -->
    <g id="circle_social">
        <circle id="circle_social_shape" class="bouncing-circle" cx="120" cy="230" r="60"/>
        <use class="bouncing-circle" href="#thumbs_up" x="80" y="190" width="80" height="80"/>
    </g>

    <!-- Circle 2: Documentation (top-right quadrant: x 1340-1860, y 170-320) -->
    <g id="circle_docs">
        <circle id="circle_docs_shape" class="bouncing-circle" cx="1800" cy="230" r="60"/>
        <use class="bouncing-circle" href="#document_interactive" x="1760" y="190" width="80" height="80"/>
    </g>

    <!-- Circle 3: Education (bottom-left quadrant: x 60-580, y 740-1020) -->
    <g id="circle_edu">
        <circle id="circle_edu_shape" class="bouncing-circle" cx="120" cy="960" r="60"/>
        <use class="bouncing-circle" href="#neural_network" x="80" y="920" width="80" height="80"/>
    </g>

    <!-- Circle 4: Business (bottom-right quadrant: x 1340-1860, y 740-1020) -->
    <g id="circle_biz">
        <circle id="circle_biz_shape" class="bouncing-circle" cx="1800" cy="960" r="60"/>
        <use class="bouncing-circle" href="#bullseye" x="1760" y="920" width="80" height="80"/>
    </g>

    <!-- Centered Text Groups (one for each use case) -->
    <g id="text_social">
        <text x="960" y="500" class="title-text">Social Media &amp; Outreach</text>
        <line x1="690" y1="515" x2="1230" y2="515" class="underline"/>
        <text x="960" y="570" class="subtitle-text">High-velocity technical storytelling</text>
        <text x="960" y="620" class="subtitle-text">for social media engagement.</text>
    </g>

    <g id="text_docs">
        <text x="960" y="500" class="title-text">Knowledge Sharing</text>
        <line x1="680" y1="515" x2="1240" y2="515" class="underline"/>
        <text x="960" y="570" class="subtitle-text">Interactive documentation that transforms</text>
        <text x="960" y="620" class="subtitle-text">abstract models into living explanations.</text>
    </g>

    <g id="text_edu">
        <text x="960" y="500" class="title-text">Education &amp; Tutorials</text>
        <line x1="720" y1="515" x2="1200" y2="515" class="underline"/>
        <text x="960" y="570" class="subtitle-text">Demystifying complex technical concepts</text>
        <text x="960" y="620" class="subtitle-text">through step-by-step visual walkthroughs.</text>
    </g>

    <g id="text_biz">
        <text x="960" y="500" class="title-text">Business &amp; Strategy</text>
        <line x1="735" y1="515" x2="1185" y2="515" class="underline"/>
        <text x="960" y="570" class="subtitle-text">Business narratives with the precision of code,</text>
        <text x="960" y="620" class="subtitle-text">transcending the limitations of static slides.</text>
    </g>

    <!-- Teaser Group -->
</svg>