<!-- GENERATED by resource/temp/make_ladder_svg.py — do not hand-edit.
     Symbols are inlined copies of resource/scene/icons.svg (that file is the
     source of truth; cross-file <use> is not consumed by the pipeline). -->
<svg xmlns="http://www.w3.org/2000/svg" viewBox="0 0 1920 1080" width="1920" height="1080" id="milestone-icon-layer">
	<defs>
	<symbol id="clock" viewBox="0 0 24 24">
		    <!-- Face -->
		    <circle cx="12" cy="12" r="9" class="icon-fill icon-stroke" stroke-width="1"/>
		    <!-- Hour ticks at 12, 3, 6 and 9 -->
		    <path d="M 12,4.2 L 12,5.8 M 19.8,12 L 18.2,12 M 12,19.8 L 12,18.2 M 4.2,12 L 5.8,12"
		          fill="none" class="icon-stroke" stroke-width="1"/>
		    <!-- Hands -->
		    <path d="M 12,12 L 12,7.4 M 12,12 L 15.3,13.7"
		          fill="none" class="icon-stroke" stroke-width="1.2" stroke-linecap="round"/>
		    <!-- Centre pin -->
		    <circle cx="12" cy="12" r="0.9" class="icon-fill-dark"/>
		</symbol>
	<symbol id="graduate" viewBox="0 0 24 24">
		    <!-- Board -->
		    <path d="M 12,3.6 L 22,7.6 L 12,11.6 L 2,7.6 Z"
		          class="icon-fill icon-stroke" stroke-width="1"/>
		    <!-- Cap below the board, seen head-on -->
		    <path d="M 6,9.2 L 6,15 Q 12,18.6 18,15 L 18,9.2"
		          fill="none" class="icon-stroke" stroke-width="1"/>
		    <!-- Tassel -->
		    <path d="M 20.6,8.2 L 20.6,14.2" fill="none" class="icon-stroke" stroke-width="1"/>
		    <circle cx="20.6" cy="15.2" r="1" class="icon-fill-medium"/>
		</symbol>
	<symbol id="stethoscope" viewBox="0 0 24 24">
		    <!-- Binaural tubing: the two ear branches meeting in a loop -->
		    <path d="M 4.6,4 L 4.6,9.4 A 4.2,4.2 0 0 0 13,9.4 L 13,4"
		          fill="none" class="icon-stroke" stroke-width="1.2"/>
		    <!-- Earpieces -->
		    <circle cx="4.6" cy="3.2" r="1.2" class="icon-fill-medium"/>
		    <circle cx="13" cy="3.2" r="1.2" class="icon-fill-medium"/>
		    <!-- Lower tube, down and across to the chest piece -->
		    <path d="M 8.8,13.6 L 8.8,16.4 A 4.4,4.4 0 0 0 17.6,16.4 L 17.6,15"
		          fill="none" class="icon-stroke" stroke-width="1.2"/>
		    <!-- Chest piece -->
		    <circle cx="17.6" cy="12.4" r="2.6" class="icon-fill icon-stroke" stroke-width="1"/>
		</symbol>
	<symbol id="heart" viewBox="0 0 24 24">
		    <!-- Two lobes meeting at a point -->
		    <path d="M 12,20.6 C 3.6,14.6 3.2,9.4 6.8,7 C 9.2,5.4 12,7.1 12,9.6
		             C 12,7.1 14.8,5.4 17.2,7 C 20.8,9.4 20.4,14.6 12,20.6 Z"
		          class="icon-fill icon-stroke" stroke-width="1"/>
		</symbol>
	<symbol id="hospital" viewBox="0 0 24 24">
		    <!-- Building body -->
		    <rect x="4" y="8.4" width="16" height="12.6" rx="0.5" ry="0.5"
		          class="icon-fill icon-stroke" stroke-width="1"/>
		    <!-- Roof -->
		    <path d="M 2.6,8.9 L 12,3.2 L 21.4,8.9" fill="none" class="icon-stroke" stroke-width="1"/>
		    <!-- Cross, centred on the facade -->
		    <path d="M 10.7,11.4 L 13.3,11.4 L 13.3,13.8 L 15.7,13.8 L 15.7,16.4 L 13.3,16.4
		             L 13.3,18.8 L 10.7,18.8 L 10.7,16.4 L 8.3,16.4 L 8.3,13.8 L 10.7,13.8 Z"
		          class="icon-fill-dark"/>
		</symbol>
	<symbol id="group" viewBox="0 0 24 24">
		    <!-- Links first, so the nodes sit over them -->
		    <path d="M 12,8 L 12,12 M 12,12 L 6,15.6 M 12,12 L 18,15.6"
		          fill="none" class="icon-stroke" stroke-width="1"/>
		    <!-- Lead node -->
		    <circle cx="12" cy="5.2" r="3" class="icon-fill icon-stroke" stroke-width="1"/>
		    <!-- The two it reaches -->
		    <circle cx="5.4" cy="18.2" r="2.8" class="icon-fill icon-stroke" stroke-width="1"/>
		    <circle cx="18.6" cy="18.2" r="2.8" class="icon-fill icon-stroke" stroke-width="1"/>
		</symbol>
	</defs>
	<g id="icon-career-decision"><use href="#clock" x="230" y="778" width="40" height="40"/></g>
	<g id="icon-medical-school"><use href="#graduate" x="514" y="578" width="40" height="40"/></g>
	<g id="icon-internship"><use href="#stethoscope" x="798" y="610" width="40" height="40"/></g>
	<g id="icon-family"><use href="#heart" x="1082" y="410" width="40" height="40"/></g>
	<g id="icon-community"><use href="#hospital" x="1366" y="442" width="40" height="40"/></g>
	<g id="icon-teaching"><use href="#group" x="1650" y="242" width="40" height="40"/></g>
</svg>
